<svg height="464pt" viewBox="0 -24 464 464" width="464pt" xmlns="http://www.w3.org/2000/svg"><path d="m144 40v-40h-112v104h432v-64zm0 0" fill="#e59730"/><path d="m0 104h464v312h-464zm0 0" fill="#f9e109"/><path d="m32 72h400v32h-400zm0 0" fill="#57b7eb"/><path d="m464 104h-464v312h464v-64h-232c-88.367188 0-160-71.632812-160-160v-88zm0 0" fill="#fcbc04"/><path d="m184 40h280v16h-264c-8.835938 0-16-7.164062-16-16zm0 0" fill="#fcbc04"/><path d="m336 264c0 57.4375-46.5625 104-104 104s-104-46.5625-104-104 46.5625-104 104-104 104 46.5625 104 104zm0 0" fill="#57b7eb"/><path d="m272 328c-36.878906-.027344-70.988281-19.582031-89.640625-51.394531-18.65625-31.816407-19.066406-71.128907-1.078125-103.324219-38.566406 21.449219-59.394531 64.902344-51.960938 108.398438 7.429688 43.496093 41.503907 77.570312 85 85 43.496094 7.433593 86.949219-13.394532 108.398438-51.960938-15.484375 8.707031-32.953125 13.28125-50.71875 13.28125zm0 0" fill="#4891d3"/><path d="m264 272v-64h-64v64h-32l64 64 64-64zm0 0" fill="#c4f236"/><path d="m232 272v-64h-32v64h-32l64 64 18.71875-18.71875c-11.996094-12.015625-18.730469-28.300781-18.71875-45.28125zm0 0" fill="#a1d51c"/></svg>