<svg height="512pt" viewBox="0 0 512 512" width="512pt" xmlns="http://www.w3.org/2000/svg"><path d="m416 256c0-54.554688-71.578125-98.777344-159.871094-98.777344-88.296875 0-159.875 44.222656-159.875 98.777344s71.578125 98.777344 159.875 98.777344c88.292969 0 159.871094-44.222656 159.871094-98.777344zm0 0" fill="#eff3f3"/><path d="m314.996094 256c0 32.507812-26.351563 58.859375-58.855469 58.859375-32.507813 0-58.859375-26.351563-58.859375-58.859375s26.351562-58.859375 58.859375-58.859375c32.503906 0 58.855469 26.351563 58.855469 58.859375zm0 0" fill="#8690a6"/><path d="m294.46875 229.703125c0 15.617187-12.664062 28.28125-28.28125 28.28125-15.621094 0-28.28125-12.664063-28.28125-28.28125 0-15.621094 12.660156-28.28125 28.28125-28.28125 15.617188 0 28.28125 12.660156 28.28125 28.28125zm0 0" fill="#b0e7f8"/><path d="m280.71875 191.675781c-17.183594-6.5625-35.894531-6.042969-52.683594 1.460938-16.792968 7.507812-29.652344 21.101562-36.21875 38.285156-13.554687 35.46875 4.277344 75.347656 39.742188 88.902344 7.988281 3.050781 16.304687 4.574219 24.605468 4.574219 9.554688 0 19.09375-2.015626 28.078126-6.035157 16.792968-7.507812 29.65625-21.101562 36.21875-38.285156 13.554687-35.46875-4.277344-75.347656-39.742188-88.902344zm-31.609375 31.5c2.78125-7.273437 9.734375-11.753906 17.097656-11.753906 2.164063 0 4.363281.386719 6.503907 1.203125 9.417968 3.597656 14.152343 14.1875 10.554687 23.601562-3.601563 9.417969-14.1875 14.152344-23.605469 10.554688-9.414062-3.597656-14.148437-14.1875-10.550781-23.605469zm52.667969 50.265625c-4.65625 12.191406-13.785156 21.835938-25.699219 27.164063-11.914063 5.324219-25.1875 5.695312-37.378906 1.035156-25.167969-9.617187-37.816407-37.914063-28.203125-63.082031 4.101562-10.730469 11.601562-19.175782 20.804687-24.601563-.308593.683594-.601562 1.375-.871093 2.082031-3.652344 9.550782-3.363282 19.953126.808593 29.285157 4.175781 9.335937 11.734375 16.488281 21.285157 20.136719 4.480468 1.714843 9.085937 2.523437 13.621093 2.523437 15.417969 0 29.980469-9.378906 35.804688-24.617187.265625-.703126.507812-1.414063.734375-2.125 3.234375 10.179687 3.195312 21.472656-.90625 32.199218zm0 0"/><path d="m256 60c5.523438 0 10-4.476562 10-10v-40c0-5.523438-4.476562-10-10-10s-10 4.476562-10 10v40c0 5.523438 4.476562 10 10 10zm0 0"/><path d="m256 451.9375c-5.523438 0-10 4.476562-10 10v40.0625c0 5.523438 4.476562 10 10 10s10-4.476562 10-10v-40.0625c0-5.523438-4.476562-10-10-10zm0 0"/><path d="m502 246h-40c-5.523438 0-10 4.476562-10 10s4.476562 10 10 10h40c5.523438 0 10-4.476562 10-10s-4.476562-10-10-10zm0 0"/><path d="m60.0625 256c0-5.523438-4.476562-10-10-10h-40.0625c-5.523438 0-10 4.476562-10 10s4.476562 10 10 10h40.0625c5.523438 0 10-4.476562 10-10zm0 0"/><path d="m167.929688 69.507812c1.59375 3.851563 5.316406 6.175782 9.242187 6.175782 1.273437 0 2.570313-.246094 3.820313-.765625 5.105468-2.113281 7.527343-7.960938 5.414062-13.0625l-15.308594-36.957031c-2.113281-5.101563-7.960937-7.527344-13.0625-5.410157-5.105468 2.113281-7.527344 7.960938-5.414062 13.0625zm0 0"/><path d="m344.046875 442.433594c-2.113281-5.101563-7.960937-7.527344-13.0625-5.410156-5.105469 2.113281-7.527344 7.960937-5.414063 13.066406l15.332032 37.011718c1.59375 3.851563 5.316406 6.175782 9.242187 6.175782 1.277344 0 2.574219-.246094 3.824219-.765625 5.101562-2.113281 7.523438-7.960938 5.410156-13.0625zm0 0"/><path d="m437.082031 180.992188c1.59375 3.851562 5.316407 6.179687 9.242188 6.179687 1.273437 0 2.570312-.246094 3.824219-.765625l36.953124-15.308594c5.101563-2.113281 7.527344-7.960937 5.414063-13.0625-2.113281-5.101562-7.964844-7.527344-13.066406-5.414062l-36.957031 15.308594c-5.101563 2.113281-7.523438 7.960937-5.410157 13.0625zm0 0"/><path d="m74.976562 330.980469c-2.113281-5.101563-7.964843-7.527344-13.0625-5.410157l-37.015624 15.332032c-5.101563 2.113281-7.523438 7.960937-5.410157 13.0625 1.59375 3.851562 5.316407 6.175781 9.242188 6.175781 1.277343 0 2.574219-.242187 3.824219-.761719l37.011718-15.332031c5.101563-2.113281 7.523438-7.960937 5.410156-13.066406zm0 0"/><path d="m24.898438 171.097656 36.957031 15.308594c1.25.519531 2.546875.765625 3.820312.765625 3.925781 0 7.648438-2.328125 9.246094-6.179687 2.109375-5.101563-.3125-10.949219-5.414063-13.0625l-36.953124-15.308594c-5.101563-2.113282-10.953126.3125-13.066407 5.414062-2.113281 5.101563.308594 10.949219 5.410157 13.0625zm0 0"/><path d="m487.101562 340.902344-37.011718-15.332032c-5.101563-2.113281-10.953125.308594-13.066406 5.410157-2.113282 5.105469.308593 10.953125 5.410156 13.066406l37.015625 15.332031c1.25.519532 2.546875.761719 3.820312.761719 3.925781 0 7.648438-2.324219 9.246094-6.175781 2.109375-5.101563-.3125-10.949219-5.414063-13.0625zm0 0"/><path d="m331.007812 74.917969c1.25.519531 2.546876.765625 3.820313.765625 3.925781 0 7.648437-2.324219 9.242187-6.175782l15.308594-36.957031c2.113282-5.101562-.308594-10.949219-5.410156-13.0625s-10.953125.308594-13.066406 5.410157l-15.308594 36.957031c-2.113281 5.101562.308594 10.949219 5.414062 13.0625zm0 0"/><path d="m181.019531 437.023438c-5.105469-2.117188-10.953125.308593-13.066406 5.410156l-15.332031 37.011718c-2.113282 5.105469.3125 10.953126 5.414062 13.066407 1.25.519531 2.546875.765625 3.820313.765625 3.925781 0 7.648437-2.328125 9.246093-6.175782l15.328126-37.015624c2.113281-5.101563-.308594-10.949219-5.410157-13.0625zm0 0"/><path d="m408.734375 394.59375c-3.90625-3.90625-10.238281-3.90625-14.140625 0-3.90625 3.902344-3.90625 10.234375 0 14.140625l60.304688 60.304687c1.953124 1.953126 4.511718 2.929688 7.070312 2.929688s5.117188-.976562 7.070312-2.929688c3.90625-3.902343 3.90625-10.234374 0-14.140624zm0 0"/><path d="m103.308594 117.453125c1.953125 1.953125 4.511718 2.929687 7.070312 2.929687s5.121094-.976562 7.070313-2.929687c3.90625-3.90625 3.90625-10.238281 0-14.144531l-44.011719-44.015625c-3.90625-3.902344-10.238281-3.902344-14.144531 0-3.902344 3.90625-3.902344 10.238281 0 14.144531zm0 0"/><path d="m34.558594 44.558594c2.632812 0 5.210937-1.070313 7.070312-2.929688s2.929688-4.4375 2.929688-7.070312c0-2.628906-1.070313-5.207032-2.929688-7.070313-1.859375-1.859375-4.4375-2.929687-7.070312-2.929687-2.628906 0-5.207032 1.070312-7.070313 2.929687-1.859375 1.863281-2.929687 4.441407-2.929687 7.070313 0 2.632812 1.070312 5.210937 2.929687 7.070312 1.863281 1.859375 4.441407 2.929688 7.070313 2.929688zm0 0"/><path d="m103.265625 394.59375-60.667969 60.667969c-3.90625 3.90625-3.90625 10.238281 0 14.144531 1.953125 1.953125 4.511719 2.929688 7.070313 2.929688 2.558593 0 5.117187-.976563 7.070312-2.929688l60.667969-60.671875c3.90625-3.902344 3.90625-10.234375 0-14.140625-3.902344-3.90625-10.234375-3.90625-14.140625 0zm0 0"/><path d="m401.621094 120.378906c2.558594 0 5.117187-.976562 7.070312-2.929687l58.878906-58.878907c3.90625-3.90625 3.90625-10.234374 0-14.140624s-10.234374-3.90625-14.140624 0l-58.882813 58.878906c-3.902344 3.90625-3.902344 10.238281 0 14.140625 1.953125 1.953125 4.515625 2.929687 7.074219 2.929687zm0 0"/><path d="m424.691406 251.054688c-37-65.019532-100.015625-103.832032-168.5625-103.832032-68.550781 0-131.566406 38.8125-168.566406 103.832032-1.746094 3.066406-1.746094 6.824218 0 9.890624 37 65.019532 100.011719 103.832032 168.5625 103.832032s131.566406-38.8125 168.566406-103.832032c1.746094-3.066406 1.746094-6.824218 0-9.890624zm-168.5625 93.722656c-59.527344 0-114.570312-33.074219-148.28125-88.777344 33.710938-55.703125 88.753906-88.777344 148.28125-88.777344 59.523438 0 114.566406 33.074219 148.277344 88.777344-33.710938 55.703125-88.753906 88.777344-148.277344 88.777344zm0 0"/></svg>