<svg height="457pt" viewBox="0 0 457.14392 457" width="457pt" xmlns="http://www.w3.org/2000/svg"><path d="m360.320312 319.222656 14.390626 73.570313-43.792969 30.457031-63.84375-39.3125c-3.152344 1.265625-6.175781 1.648438-9.574219 2.160156l-41.839844 61.964844-52.316406-9.347656-17.289062-72.804688c-3.027344-1.503906-5.804688-3.515625-8.328126-5.402344l-73.1875 14.261719-30.460937-43.792969 39.1875-63.589843c-.886719-3.277344-1.648437-6.171875-2.035156-9.195313l-62.085938-42.21875 9.34375-52.316406 73.183594-17.417969c1.378906-2.769531 3.015625-5.421875 4.898437-7.945312l-14.011718-73.695313 43.667968-30.203125 63.589844 39.1875c3.152344-1.269531 6.175782-1.65625 9.578125-2.164062l41.960938-62.214844 52.191406 9.597656 17.289063 72.804688c3.027343 1.507812 5.804687 3.515625 8.453124 5.152343l73.316407-13.890624 30.332031 43.417968-39.3125 63.847656c1.011719 3.023438 1.648438 6.171876 2.035156 9.195313l62.339844 42.34375-9.597656 52.191406-72.929688 17.535157c-1.253906 2.523437-3.269531 5.304687-5.152344 7.824218zm0 0" fill="#e7e4f3"/><path d="m215.660156 457.203125c-.535156 0-1.070312-.042969-1.605468-.140625l-52.324219-9.351562c-3.585938-.640626-6.445313-3.347657-7.285157-6.882813l-16.363281-68.929687c-.867187-.542969-1.699219-1.097657-2.511719-1.660157l-69.285156 13.511719c-3.527344.695312-7.1875-.777344-9.257812-3.75l-30.457032-43.796875c-2.070312-2.992187-2.1875-6.917969-.277343-10.015625l37.136719-60.269531c-.1875-.785157-.375-1.5625-.535157-2.339844l-58.894531-40.042969c-2.980469-2.027344-4.492188-5.625-3.855469-9.171875l9.347657-52.3125c.640624-3.578125 3.339843-6.445312 6.882812-7.285156l69.222656-16.480469c.410156-.6875.839844-1.375 1.277344-2.046875l-13.304688-69.9375c-.675781-3.550781.804688-7.167969 3.777344-9.222656l43.671875-30.203125c2.988281-2.0625 6.910157-2.164062 10-.269531l60.050781 37.007812c1.011719-.25 2-.445312 2.972657-.613281l39.734375-58.914062c2.035156-3.007813 5.625-4.5 9.230468-3.875l52.1875 9.601562c3.5625.648438 6.402344 3.347656 7.242188 6.875l16.375 68.917969c.792969.492187 1.582031.992187 2.347656 1.492187l69.742188-13.214844c3.5625-.679687 7.140625.792969 9.195312 3.75l30.332032 43.417969c2.089843 2.984375 2.203124 6.921875.292968 10.027344l-37.203125 60.429687c.195313.8125.375 1.632813.535157 2.472657l59.078124 40.125c3 2.035156 4.519532 5.652343 3.859376 9.214843l-9.597657 52.195313c-.652343 3.554687-3.339843 6.394531-6.859375 7.242187l-69.125 16.617188c-.445312.675781-.890625 1.347656-1.347656 2.007812l13.625 69.652344c.695312 3.5625-.777344 7.195313-3.75 9.265625l-43.792969 30.457031c-3 2.078126-6.914062 2.195313-10.019531.277344l-60.304688-37.136718c-1.007812.25-2 .449218-2.972656.617187l-39.605468 58.660156c-1.722657 2.546875-4.582032 4.027344-7.582032 4.027344zm-44.8125-26.4375 40.5625 7.25 38.507813-57.035156c1.4375-2.125 3.699219-3.542969 6.226562-3.929688 3.460938-.507812 5.597657-.828125 7.515625-1.597656 2.695313-1.089844 5.734375-.828125 8.207032.695313l58.75 36.171874 33.980468-23.625-13.25-67.714843c-.5-2.535157.109375-5.167969 1.652344-7.230469 1.695312-2.269531 3.382812-4.617188 4.285156-6.429688 1.207032-2.421874 3.421875-4.179687 6.054688-4.8125l67.140625-16.144531 7.449219-40.480469-57.402344-38.992187c-2.171875-1.472656-3.609375-3.8125-3.9375-6.410156-.339844-2.722657-.894532-5.230469-1.632813-7.457031-.859375-2.570313-.539062-5.382813.882813-7.6875l36.167968-58.738282-23.507812-33.652344-67.507812 12.792969c-2.261719.421875-4.574219 0-6.511719-1.203125l-2.625-1.679687c-1.625-1.054688-3.300781-2.167969-5.097657-3.070313-2.425781-1.207031-4.1875-3.429687-4.8125-6.0625l-15.917968-67.011718-40.4375-7.4375-38.617188 57.261718c-1.4375 2.125-3.695312 3.542969-6.222656 3.925782-3.472656.511718-5.605469.832031-7.507812 1.601562-2.6875 1.070312-5.734376.828125-8.214844-.699219l-58.519532-36.050781-33.863281 23.417969 12.910157 67.855469c.480468 2.519531-.125 5.117187-1.652344 7.171874-1.554688 2.078126-2.910156 4.285157-4.054688 6.570313-1.214844 2.421875-3.429687 4.179687-6.0625 4.804687l-67.347656 16.035157-7.25 40.582031 57.1875 38.882812c2.167969 1.472657 3.597656 3.8125 3.929688 6.410157.300781 2.394531.953124 4.902343 1.785156 7.9375.660156 2.4375.285156 5.042969-1.035156 7.195312l-36.046876 58.5 23.625 33.984375 67.339844-13.125c2.535156-.492187 5.152344.097656 7.214844 1.640625 2.339844 1.742188 4.625 3.402344 6.929688 4.535157 2.425781 1.214843 4.203124 3.4375 4.828124 6.082031zm0 0" fill="#2a3d4f"/><path d="m322.824219 245.820312c-9.417969 52.117188-59.15625 86.671876-111.363281 77.257813-52.203126-9.417969-86.671876-59.15625-77.253907-111.359375 9.414063-52.207031 59.152344-86.675781 111.359375-77.257812 52.113282 9.417968 86.671875 59.152343 77.257813 111.359374zm0 0" fill="#4b6981"/><path d="m228.527344 333.757812c-6.171875 0-12.410156-.554687-18.6875-1.679687-27.652344-4.992187-51.660156-20.410156-67.625-43.429687-15.957032-23-22-50.898438-17.007813-78.550782 4.988281-27.652344 20.410157-51.671875 43.417969-67.636718 23-15.945313 50.894531-22 78.5625-17 56.945312 10.296874 94.910156 65.019531 84.632812 121.984374-9.160156 50.660157-53.5 86.3125-103.292968 86.3125zm-.269532-191.707031c-17.515624 0-34.5625 5.285157-49.203124 15.4375-19 13.179688-31.734376 33.011719-35.847657 55.859375-4.125 22.847656.855469 45.890625 14.035157 64.882813 13.167968 19 33.007812 31.730469 55.847656 35.847656 47.007812 8.5 92.230468-22.867187 100.730468-69.882813 8.492188-47.046874-22.855468-92.234374-69.882812-100.734374-5.230469-.945313-10.472656-1.410157-15.679688-1.410157zm94.5625 103.769531h.089844zm0 0" fill="#2a3d4f"/></svg>