<?xml version="1.0" encoding="utf-8"?>
<!-- Svg Vector Icons : http://www.onlinewebfonts.com/icon -->
<!DOCTYPE svg PUBLIC "-//W3C//DTD SVG 1.1//EN" "http://www.w3.org/Graphics/SVG/1.1/DTD/svg11.dtd">
<svg version="1.1" xmlns="http://www.w3.org/2000/svg" xmlns:xlink="http://www.w3.org/1999/xlink" x="0px" y="0px" viewBox="0 0 1000 1000" enable-background="new 0 0 1000 1000" xml:space="preserve">
<metadata> Svg Vector Icons : http://www.onlinewebfonts.com/icon </metadata>
<g><path d="M445.3,340.1c-0.1-0.1-0.3-0.1-0.4-0.1c-0.1,0-0.1-0.1-0.1-0.1s-0.1,0-0.1,0c-60.8-30.6-85.5-104.9-55-165.6c21-42,63.3-68.1,110.4-68.1c19.3,0,37.8,4.5,55.1,13.2c29.5,14.7,51.4,40.1,61.7,71.3c9.5,28.7,7,59.2-4.7,86.8c-1,2.5-0.9,5-2,7.4c-7.6,15.1-18.4,28-31.1,38.3c-1,10.9-1.7,22,0.9,33.3c5.7,24.5,20.8,44.1,39.4,58.8c32.5-21,60-50.2,78.1-86.5c7.6-15.2,12.9-31,16.9-47c0.1-0.9,0.2-1.8,0.3-2.6c3.8-15.7,5.3-31.5,5.5-47.5c0,0,0-0.1,0-0.2c0.1-24-2.7-48-10.5-71.4c-8.1-24.5-20.8-46.5-36.3-66.2v-0.1C663.9,81.3,653.1,70,641,60c-0.5-0.4-0.9-0.9-1.3-1.3c-12.6-10.2-25.9-19.4-40.7-26.8C585.3,25,571,20,556.5,16.3c-2.3-0.6-4.7-0.6-7.1-1.1c-12.4-2.7-25-4.6-37.6-5.2c-0.8,0-1.8,0.1-2.6,0.1c-83.9-2.3-167.8,42.7-206.8,120.5c-47,93.8-20.4,205.5,57.6,269.6l-92.1,183.7l-102.3-51.3c-24.2-12.1-53.6-2.2-65.6,21.9c-12.1,24.1-2.3,53.5,21.8,65.6L224,671.3L176.5,766c-12.1,24.2-2.3,53.5,21.8,65.6c7,3.5,14.5,5.2,21.8,5.2c18,0,35.2-9.9,43.8-27l183.2-365.4c9.7,2.4,19.7,2.6,29.7,3.8c-10.6-19.4-20.5-39.4-25.6-61.8C447.6,370.8,445.8,355.4,445.3,340.1z"/><path d="M796,522.2c12.7-7.5,24.5-16.2,35.4-25.8c2-1.9,4.2-3.6,6.1-5.6c26.7-25.9,46.2-57.9,57.3-93.5c11.3-36,14.2-75.2,5.2-114.6c-20.3-87.5-92.7-151.8-176.8-167.5c8.5,16.9,15.6,34.7,20,53.9c4.6,20,5.9,40,5.7,59.7c27.1,16.9,48.2,42.8,55.9,75.9c7.1,31.2,0.9,62.1-13.8,88c-2.5,4.6-6,8.5-9,12.7c-5.8,7.6-12.1,14.5-19.4,20.7c-3.5,3.1-6.9,6.1-10.8,8.7c-12,7.9-25,14.6-39.7,18c-15.3,3.6-30.6,3.4-45.3,1.2c-14.4-2.6-28.3-7.6-40.9-14.6c0,0,0,0-0.1,0c-29.8-16.4-53.4-43.8-61.6-79.1c-5.3-23.1-1.5-45.3,5.6-66.2c5.6-16.5,14.1-31.2,26.1-44c3.9-15.2,5.5-31.1,1.9-47.3c-5.2-22.3-17.5-41-33.9-54.7c-20.3,13.3-37,30.6-51.5,49.4c-0.4-0.4-0.7-0.6-0.9-0.9c-3.1,3.8-5,8.3-7.7,12.3c-4.5,6.6-8.8,13-12.5,20c-5,9.1-8.8,18.5-12.4,28.2c-1.8,4.8-3.8,9.5-5.2,14.5c-4,13.5-6.5,27.2-7.8,41.3c-0.2,1.4-0.6,2.8-0.8,4.1c0.1,0,0.2,0.1,0.2,0.1c-1.6,21.3-1.2,43,3.8,65.1c14.1,61.8,54.4,109.6,105.9,139.4c7.5,4.5,14.9,9.1,23,12.8c8.1,3.4,15.9,6.4,24.4,8.9c19.7,6.2,40.3,10.6,62.1,10.6c0.2,0,0.6-0.1,0.8-0.1l46.2,200l-111.6,25.5c-26.3,6-42.7,32.2-36.8,58.5c5.2,22.7,25.4,37.9,47.6,37.9c3.7,0,7.3-0.4,11.1-1.3l111.6-25.6L777,952.1c5.3,22.6,25.3,37.9,47.6,37.9c3.6,0,7.3-0.3,11-1.3c26.4-6,42.7-32.3,36.7-58.5l-92.1-399.7c1.5-0.7,3.2-1,4.5-1.7C788.7,526.8,792.2,524.4,796,522.2z"/></g>
</svg>