<svg height="512pt" viewBox="-31 0 512 512" width="512pt" xmlns="http://www.w3.org/2000/svg"><path d="m449.980469 224.988281v287.011719h-149.019531v-281c0-41.890625-34.082032-75.96875-75.972657-75.96875-41.886719 0-75.96875 34.078125-75.96875 75.96875v281h-149.019531v-287.011719c0-60.097656 23.398438-116.597656 65.898438-159.089843 42.492187-42.5 98.992187-65.898438 159.089843-65.898438 60.101563 0 116.601563 23.398438 159.089844 65.898438 42.5 42.492187 65.902344 98.992187 65.902344 159.089843zm0 0" fill="#e60020"/><path d="m449.980469 224.988281v287.011719h-149.019531v-281c0-41.890625-34.082032-75.96875-75.972657-75.96875v-155.03125c60.101563 0 116.601563 23.398438 159.089844 65.898438 42.5 42.492187 65.902344 98.992187 65.902344 159.089843zm0 0" fill="#c1001b"/><path d="m300.960938 413h149.019531v99h-149.019531zm0 0" fill="#c7c5cc"/><path d="m0 413h149.019531v99h-149.019531zm0 0" fill="#d8d8da"/></svg>