<svg height="457.14286pt" viewBox="0 0 457.14286 457.14286" width="457.14286pt" xmlns="http://www.w3.org/2000/svg"><path d="m349.441406 110.261719v337.738281h-340.296875v-438.855469h239.085938v101.117188zm0 0" fill="#ec763e"/><path d="m349.4375 457.144531h-340.292969c-5.054687 0-9.144531-4.09375-9.144531-9.144531v-438.855469c0-5.050781 4.089844-9.144531 9.144531-9.144531h239.085938c5.054687 0 9.144531 4.09375 9.144531 9.144531v91.976563h92.0625c5.054688 0 9.144531 4.09375 9.144531 9.140625v337.738281c0 5.050781-4.089843 9.144531-9.144531 9.144531zm-331.152344-18.289062h322.007813v-319.449219h-92.0625c-5.050781 0-9.140625-4.09375-9.140625-9.144531v-91.976563h-220.804688zm0 0" fill="#2a3d4f"/><path d="m349.441406 110.261719h-101.210937v-101.117188zm0 0" fill="#ec763e"/><path d="m349.4375 119.40625h-101.207031c-5.050781 0-9.140625-4.09375-9.140625-9.144531v-101.117188c0-3.699219 2.222656-7.03125 5.640625-8.449219 3.429687-1.40625 7.351562-.632812 9.964843 1.980469l101.207032 101.117188c2.617187 2.617187 3.402344 6.550781 1.980468 9.964843-1.410156 3.421876-4.75 5.648438-8.445312 5.648438zm-92.0625-18.285156h69.972656l-69.972656-69.921875zm0 0" fill="#2a3d4f"/><path d="m448 354.855469c0 51.441406-41.703125 93.144531-93.144531 93.144531-51.441407 0-93.140625-41.703125-93.140625-93.144531 0-51.441407 41.699218-93.140625 93.140625-93.140625 51.441406 0 93.144531 41.699218 93.144531 93.140625zm0 0" fill="#e7e4f3"/><g fill="#2a3d4f"><path d="m354.855469 457.144531c-56.398438 0-102.285157-45.886719-102.285157-102.289062 0-56.398438 45.886719-102.285157 102.285157-102.285157 56.402343 0 102.289062 45.886719 102.289062 102.285157 0 56.402343-45.886719 102.289062-102.289062 102.289062zm0-186.289062c-46.320313 0-84 37.683593-84 84 0 46.320312 37.679687 84 84 84 46.324219 0 84-37.679688 84-84 0-46.316407-37.675781-84-84-84zm0 0"/><path d="m401.492188 364h-93.222657c-5.054687 0-9.144531-4.09375-9.144531-9.144531 0-5.046875 4.089844-9.140625 9.144531-9.140625h93.222657c5.050781 0 9.140624 4.09375 9.140624 9.140625 0 5.050781-4.089843 9.144531-9.140624 9.144531zm0 0"/><path d="m354.875 410.617188c-5.054688 0-9.144531-4.09375-9.144531-9.144532v-93.230468c0-5.050782 4.089843-9.144532 9.144531-9.144532s9.144531 4.09375 9.144531 9.144532v93.230468c0 5.050782-4.089843 9.144532-9.144531 9.144532zm0 0"/><path d="m214.144531 54.855469h-165.714843c-5.054688 0-9.144532-4.09375-9.144532-9.140625 0-5.050782 4.089844-9.144532 9.144532-9.144532h165.714843c5.050781 0 9.140625 4.09375 9.140625 9.144532 0 5.046875-4.089844 9.140625-9.140625 9.140625zm0 0"/><path d="m214.144531 114.730469h-165.714843c-5.054688 0-9.144532-4.09375-9.144532-9.140625 0-5.050782 4.089844-9.144532 9.144532-9.144532h165.714843c5.050781 0 9.140625 4.09375 9.140625 9.144532 0 5.046875-4.089844 9.140625-9.140625 9.140625zm0 0"/><path d="m310.152344 174.601562h-261.722656c-5.054688 0-9.144532-4.09375-9.144532-9.140624 0-5.050782 4.089844-9.144532 9.144532-9.144532h261.722656c5.054687 0 9.140625 4.09375 9.140625 9.144532 0 5.046874-4.085938 9.140624-9.140625 9.140624zm0 0"/><path d="m310.152344 234.476562h-261.722656c-5.054688 0-9.144532-4.09375-9.144532-9.140624 0-5.050782 4.089844-9.144532 9.144532-9.144532h261.722656c5.054687 0 9.140625 4.09375 9.140625 9.144532 0 5.046874-4.085938 9.140624-9.140625 9.140624zm0 0"/><path d="m292.847656 294.382812h-244.390625c-5.054687 0-9.144531-4.09375-9.144531-9.140624 0-5.050782 4.089844-9.144532 9.144531-9.144532h244.390625c5.054688 0 9.144532 4.09375 9.144532 9.144532 0 5.046874-4.089844 9.140624-9.144532 9.140624zm0 0"/><path d="m262.125 354.179688h-213.667969c-5.054687 0-9.144531-4.09375-9.144531-9.144532 0-5.046875 4.089844-9.140625 9.144531-9.140625h213.667969c5.054688 0 9.144531 4.09375 9.144531 9.140625 0 5.050782-4.089843 9.144532-9.144531 9.144532zm0 0"/><path d="m276.292969 414.0625h-227.835938c-5.054687 0-9.144531-4.09375-9.144531-9.144531 0-5.046875 4.089844-9.140625 9.144531-9.140625h227.835938c5.054687 0 9.144531 4.09375 9.144531 9.140625 0 5.050781-4.089844 9.144531-9.144531 9.144531zm0 0"/></g></svg>