<svg height="464pt" viewBox="-56 0 464 464" width="464pt" xmlns="http://www.w3.org/2000/svg"><path d="m352 464h-352v-464h240l112 112zm0 0" fill="#4891d3"/><path d="m208 416c-79.527344 0-144-64.472656-144-144v-272h-64v464h352v-48zm0 0" fill="#2d72bc"/><path d="m352 112-128 24 16-136zm0 0" fill="#2d72bc"/><path d="m352 112h-112v-112zm0 0" fill="#57b7eb"/><path d="m88 160v48h64v160h48v-160h64v-48zm0 0" fill="#fcbc04"/><path d="m168 320v-112c0-8.835938-7.164062-16-16-16h-32c-8.835938 0-16-7.164062-16-16v-16h-16v48h64v160h48v-16c-17.671875 0-32-14.328125-32-32zm0 0" fill="#e59730"/><path d="m200 208h64v-16h-48c-8.835938 0-16 7.164062-16 16zm0 0" fill="#e59730"/><g fill="#a1d51c"><path d="m200 88h-104c-4.417969 0-8-3.582031-8-8s3.582031-8 8-8h104c4.417969 0 8 3.582031 8 8s-3.582031 8-8 8zm0 0"/><path d="m200 128h-152c-4.417969 0-8-3.582031-8-8s3.582031-8 8-8h152c4.417969 0 8 3.582031 8 8s-3.582031 8-8 8zm0 0"/><path d="m304 256h-56c-4.417969 0-8-3.582031-8-8s3.582031-8 8-8h56c4.417969 0 8 3.582031 8 8s-3.582031 8-8 8zm0 0"/><path d="m304 296h-56c-4.417969 0-8-3.582031-8-8s3.582031-8 8-8h56c4.417969 0 8 3.582031 8 8s-3.582031 8-8 8zm0 0"/><path d="m304 336h-56c-4.417969 0-8-3.582031-8-8s3.582031-8 8-8h56c4.417969 0 8 3.582031 8 8s-3.582031 8-8 8zm0 0"/><path d="m280 376h-32c-4.417969 0-8-3.582031-8-8s3.582031-8 8-8h32c4.417969 0 8 3.582031 8 8s-3.582031 8-8 8zm0 0"/><path d="m104 376h-56c-4.417969 0-8-3.582031-8-8s3.582031-8 8-8h56c4.417969 0 8 3.582031 8 8s-3.582031 8-8 8zm0 0"/><path d="m104 296h-56c-4.417969 0-8-3.582031-8-8s3.582031-8 8-8h56c4.417969 0 8 3.582031 8 8s-3.582031 8-8 8zm0 0"/><path d="m104 336h-56c-4.417969 0-8-3.582031-8-8s3.582031-8 8-8h56c4.417969 0 8 3.582031 8 8s-3.582031 8-8 8zm0 0"/><path d="m104 256h-32c-4.417969 0-8-3.582031-8-8s3.582031-8 8-8h32c4.417969 0 8 3.582031 8 8s-3.582031 8-8 8zm0 0"/><path d="m192 416h-144c-4.417969 0-8-3.582031-8-8s3.582031-8 8-8h144c4.417969 0 8 3.582031 8 8s-3.582031 8-8 8zm0 0"/></g><path d="m40 120c0 4.417969 3.582031 8 8 8h16v-16h-16c-4.417969 0-8 3.582031-8 8zm0 0" fill="#7ab92d"/><path d="m40 368c0 4.417969 3.582031 8 8 8h56c1.234375-.023438 2.445312-.351562 3.519531-.960938-4.804687-4.6875-9.269531-9.714843-13.359375-15.039062h-46.160156c-4.417969 0-8 3.582031-8 8zm0 0" fill="#7ab92d"/><path d="m40 288c0 4.417969 3.582031 8 8 8h18.160156c-.871094-5.296875-1.460937-10.640625-1.761718-16h-16.398438c-4.417969 0-8 3.582031-8 8zm0 0" fill="#7ab92d"/><path d="m40 328c0 4.417969 3.582031 8 8 8h31.121094c-2.566406-5.191406-4.8125-10.535156-6.722656-16h-24.398438c-4.417969 0-8 3.582031-8 8zm0 0" fill="#7ab92d"/><path d="m40 408c0 4.417969 3.582031 8 8 8h144c1.074219-.003906 2.132812-.21875 3.121094-.640625-18.457032-1.632813-36.421875-6.851563-52.882813-15.359375h-94.238281c-4.417969 0-8 3.582031-8 8zm0 0" fill="#7ab92d"/></svg>